<svg id="Layer_1" data-name="Layer 1" xmlns="http://www.w3.org/2000/svg" viewBox="0 0 222.77 197.64"><defs><style>.cls-1{fill:#edc51b;}.cls-2{fill:#f5f5f5;}.cls-3{font-size:39.28px;font-family:Abolition-Soft, Abolition;letter-spacing:0.06em;}.cls-4{letter-spacing:0.05em;}</style></defs><g id="Layer_2" data-name="Layer 2"><g id="Layer_1-2" data-name="Layer 1-2"><polygon points="116.1 107.95 112.46 107.56 118.88 48.5 163.77 53.38 158.64 100.6 155 100.2 159.74 56.62 122.12 52.54 116.1 107.95"/><path d="M170.13,98.84,166.58,98a83.29,83.29,0,0,0,1.69-10.17,68.67,68.67,0,0,0,.38-13.06L157.9,73.58l1.07-9.9,13.7,1.49c3.94.43,7.68,3.59,5.49,23.71-.35,3.26-.78,6.19-1.27,8.71l-3.59-.7c.47-2.42.88-5.24,1.22-8.4.63-5.78,1.67-19.26-2.25-19.68l-10.06-1.09-.28,2.62,9.89,1.07.25,1.34c.46,2.46.67,7.82-.16,15.45A87.16,87.16,0,0,1,170.13,98.84Z"/><polygon class="cls-1" points="153.1 101.04 156.54 69.4 122.5 65.7 118 107.11 153.1 101.04"/><path class="cls-2" d="M123.09,89.05h-.15a1.39,1.39,0,0,1-1.22-1.52l2.8-25.75a1.37,1.37,0,0,1,2.73.3h0l-2.8,25.75A1.37,1.37,0,0,1,123.09,89.05Z"/><path d="M163.52,55.47,160,54.53a2.72,2.72,0,0,0-.16-2.23,3.93,3.93,0,0,0-2.33-1.3l-1.13-.18-.33-1.09C155.3,47.27,152,48,151.84,48l-1.18.26-.7-1S146,42.05,139.52,42h-.07c-6.22,0-8.09,4.29-8.11,4.34l-.55,1.31-1.41-.21c-3.77-.56-5.47.16-6.23.86a2.66,2.66,0,0,0-.83,2l-3.64.33a6.29,6.29,0,0,1,1.91-5c1.76-1.68,4.47-2.35,8.08-2,1.27-1.92,4.44-5.33,10.78-5.33h.09a17.44,17.44,0,0,1,12.65,5.87c2.25-.19,5.48.37,6.95,3.33a7,7,0,0,1,3.76,2.71A6.17,6.17,0,0,1,163.52,55.47Z"/><polygon points="65.39 116.75 58.66 61.78 103.48 56.29 109.89 108.6 106.26 109.05 100.29 60.37 62.74 64.97 69.03 116.3 65.39 116.75"/><path d="M54.7,119.83c-1.19,0-3.17-.43-5-3.29-2.18-3.42-3.8-9.65-5-19.05-2.41-20.1,1.3-23.3,5.22-23.79L63.6,72l1.21,9.88L54.07,83.22a68.94,68.94,0,0,0,.57,13,67.28,67.28,0,0,0,2.6,12.8L68,107.76l1,7.92-3.63.45-.53-4.3L54.93,113l-.55-1.24c-1-2.29-2.44-7.45-3.38-15.08s-.8-13-.37-15.45l.23-1.34,9.87-1.21-.32-2.62-10,1.23c-3.91.48-2.69,14-2,19.71,1.33,10.87,3.13,15.53,4.41,17.54,1.08,1.71,1.78,1.61,2.24,1.56l.45,3.63A4.48,4.48,0,0,1,54.7,119.83Z"/><polygon class="cls-1" points="104.49 109.44 100.09 73.54 66.11 77.71 70.71 115.28 104.49 109.44"/><path class="cls-2" d="M71.69,96a1.38,1.38,0,0,1-1.36-1.21L67.18,69.07a1.37,1.37,0,0,1,2.73-.33h0l3.15,25.71A1.39,1.39,0,0,1,71.86,96Z"/><path d="M58.94,63.88a6.15,6.15,0,0,1,.55-5.17A7,7,0,0,1,63.2,56c1.43-3,4.64-3.6,6.91-3.43a17.49,17.49,0,0,1,12.56-6c6.37-.11,9.65,3.28,11,5.19,3.6-.4,6.32.24,8.11,1.89a6.31,6.31,0,0,1,2,4.94l-3.65-.29a2.7,2.7,0,0,0-.85-2c-.77-.7-2.48-1.39-6.25-.77l-1.41.23L91,54.36c-.08-.16-2.06-4.35-8.24-4.23-6.52.13-10.33,5.34-10.37,5.4l-.69,1-1.18-.24c-.34-.07-3.48-.62-4.18,1.73L66,59.08l-1.12.19a3.86,3.86,0,0,0-2.31,1.4,2.63,2.63,0,0,0-.12,2.21Z"/><path d="M0,175.73V125.65L222.77,87.14v50.08Zm3.66-47v42.66l215.45-37.25V91.49Z"/><path d="M111.39,197.64a100.08,100.08,0,0,1-71-29.13l3.87-3.9a94.59,94.59,0,0,0,67.09,27.54c36.63,0,70.3-21.18,85.78-54l5,2.35C185.75,175.22,150.13,197.64,111.39,197.64Z"/><path d="M14.92,125.22a97.75,97.75,0,0,1-3.61-26.4C11.31,44.33,56.2,0,111.39,0c52,0,95.87,40.09,99.79,91.27l-5.48.42c-3.7-48.34-45.13-86.2-94.31-86.2C59.23,5.49,16.8,47.36,16.8,98.82a92.08,92.08,0,0,0,3.41,24.92Z"/></g></g><text class="cls-3" transform="matrix(1.01, -0.17, 0, 1, 24.63, 161.43)">Brewe<tspan class="cls-4" x="84.57" y="0">ry</tspan><tspan x="115.76" y="0" xml:space="preserve"> Map</tspan></text></svg>